<?xml version="1.0" encoding="utf-8"?>
<!-- Generator: Adobe Illustrator 23.0.6, SVG Export Plug-In . SVG Version: 6.00 Build 0)  -->
<svg version="1.1" id="monster8" xmlns="http://www.w3.org/2000/svg" xmlns:xlink="http://www.w3.org/1999/xlink" x="0px" y="0px"
	 viewBox="0 0 1000 1000" style="enable-background:new 0 0 1000 1000;" xml:space="preserve">
<style type="text/css">
	.st0{fill:#98C01E;}
	.st1{fill:#1E1F1D;}
	.st2{fill:#FFFFFF;}
	.st3{fill:#BFE05A;}
	.st4{fill:#E32D28;}
</style>
<path id="horn8" class="st0" d="M420.7,375.6c8.8-89-7.4-155.4-17.5-186.2c-17,14.8-39.2,23.7-63.4,23.7
	c-53.5,0-97.1-43.5-97.1-97.1c0-53.5,43.5-97,97.1-97c53.5,0,97,43.5,97,97c0,19.2-5.6,37-15.2,52.1c9.5,24.3,34.2,100.3,23.3,209.9
	L420.7,375.6z M614.6,92.7c0-40.6,33.1-73.7,73.7-73.7C729,19,762,52.1,762,92.7s-33.1,73.7-73.7,73.7c-13,0-25.3-3.4-35.9-9.4
	c-13.3,27.3-42.6,97.8-29.1,163.8l-23.8,4.9c-16-78.4,20.4-158.9,33.5-184.4C621.6,128.3,614.6,111.3,614.6,92.7z"/>
<path id="eyeblack8" class="st1" d="M326.8,78.4c-10.1,0-18.4,8.2-18.4,18.4c0,10.1,8.2,18.3,18.4,18.3c10.1,0,18.3-8.2,18.3-18.3
	C345.1,86.7,336.9,78.4,326.8,78.4z M316,131.1c0-4.1-3.4-7.5-7.5-7.5s-7.5,3.4-7.5,7.5c0,4.1,3.4,7.5,7.5,7.5
	C312.6,138.7,316,135.3,316,131.1z M285.3,116c0-30,24.4-54.5,54.5-54.5c30,0,54.5,24.4,54.5,54.5s-24.4,54.5-54.5,54.5
	C309.7,170.6,285.3,146.1,285.3,116z M702.8,84.8c0-6.6-5.4-12-12-12s-12,5.4-12,12s5.4,12,12,12C697.4,96.8,702.8,91.4,702.8,84.8z
	 M671.2,88.8c0-2.2-1.8-4.1-4.1-4.1s-4.1,1.9-4.1,4.1c0,2.3,1.9,4.1,4.1,4.1C669.3,93,671.2,91.1,671.2,88.8z M651.8,96.8
	c0-17.9,14.5-32.4,32.4-32.4s32.4,14.5,32.4,32.4c0,17.8-14.5,32.4-32.4,32.4C666.4,129.2,651.8,114.6,651.8,96.8z"/>
<path id="eyewhite8" class="st2" d="M345.1,96.8c0,10.1-8.2,18.3-18.3,18.3c-10.1,0-18.4-8.2-18.4-18.3s8.2-18.4,18.4-18.4
	C336.9,78.4,345.1,86.7,345.1,96.8z M339.8,188.8c-40.1,0-72.7-32.6-72.7-72.7s32.6-72.7,72.7-72.7s72.7,32.6,72.7,72.7
	S379.9,188.8,339.8,188.8z M394.3,116c0-30-24.4-54.5-54.5-54.5s-54.5,24.4-54.5,54.5s24.4,54.5,54.5,54.5
	C369.8,170.6,394.3,146.1,394.3,116z M300.9,131.1c0-4.1,3.4-7.5,7.5-7.5s7.5,3.4,7.5,7.5c0,4.1-3.4,7.5-7.5,7.5
	C304.3,138.7,300.9,135.3,300.9,131.1z M684.2,64.4c-17.8,0-32.4,14.5-32.4,32.4c0,17.8,14.5,32.4,32.4,32.4s32.4-14.5,32.4-32.4
	C716.6,78.9,702.1,64.4,684.2,64.4z M684.2,146.2c-27.2,0-49.4-22.2-49.4-49.4s22.2-49.4,49.4-49.4c27.3,0,49.4,22.2,49.4,49.4
	S711.5,146.2,684.2,146.2z M667.1,84.8c2.3,0,4.1,1.9,4.1,4.1c0,2.3-1.8,4.1-4.1,4.1s-4.1-1.9-4.1-4.1
	C662.9,86.6,664.8,84.8,667.1,84.8z M690.8,72.7c6.6,0,12,5.4,12,12s-5.4,12-12,12s-12-5.4-12-12C678.7,78.2,684.1,72.7,690.8,72.7z
	"/>
<path id="body8" class="st3" d="M757.7,940.8h-13.5V257.4c0-15.7-12.7-28.4-28.4-28.4H284.2c-15.7,0-28.4,12.7-28.4,28.4v683.4
	h-13.5c-7.3,0-13.1,5.9-13.1,13.1v14c0,7.2,5.9,13.1,13.1,13.1h139.1c7.2,0,13.1-5.9,13.1-13.1v-14c0-7.3-5.9-13.1-13.1-13.1h-59
	V732h355.3v208.7h-59.1c-7.3,0-13.1,5.9-13.1,13.1v14c0,7.2,5.9,13.1,13.1,13.1h139.1c7.2,0,13.1-5.9,13.1-13.1v-14
	C770.8,946.6,765,940.8,757.7,940.8z"/>
<g id="mouth8">
	<path id="tounge" class="st4" d="M497.1,405.9c63.8,0,120.9,33.4,158.4,85.7c-39.2,48.9-95.6,79.5-158.4,79.5
		S378,540.5,338.8,491.6C376.3,439.3,433.2,405.9,497.1,405.9z"/>
	<path id="mouth" class="st1" d="M715.4,353.1c0,57.9-22.8,110.6-59.9,149.4c-3.9-6.2-8.2-12.1-12.8-17.7
		c-34-41.6-85.7-68.2-143.7-68.2s-109.7,26.6-143.7,68.2c-4.6,5.6-8.9,11.5-12.8,17.7c-37.1-38.8-59.9-91.5-59.9-149.4
		c0-15,1.5-29.7,4.4-43.8c51.2,48.3,127.1,78.9,212,78.9c84.7,0,160.7-30.6,211.9-78.9C713.8,323.4,715.4,338.1,715.4,353.1z"/>
</g>
</svg>
