<?xml version="1.0" encoding="utf-8"?>
<!-- Generator: Adobe Illustrator 23.0.6, SVG Export Plug-In . SVG Version: 6.00 Build 0)  -->
<svg version="1.1" id="monster4" xmlns="http://www.w3.org/2000/svg" xmlns:xlink="http://www.w3.org/1999/xlink" x="0px" y="0px"
	 viewBox="0 0 1000 1000" style="enable-background:new 0 0 1000 1000;" xml:space="preserve">
<style type="text/css">
	.st0{fill:#FFAA39;}
	.st1{fill:#E43333;}
	.st2{fill:#FFFFFF;}
	.st3{fill:#1E1F1D;}
	.st4{fill:#063E51;}
	.st5{fill:#C39E05;}
	.st6{fill:#F1C906;}
	.st7{fill:#F7B21C;}
</style>
<path id="body4" class="st0" d="M875.3,555.9c-23.6-59.2-60.3-108.1-102.6-141.6l31.4-15.1c8.4-3.9,5.8-15.7-6.3-24.9
	c-42.9-32.4-90.8-51.4-135-55.7l19.4-28.6c2.6-3.8,2.1-7.8-0.9-11s-8.5-5.6-15.5-6.2c-23.1-1.8-45.3-0.2-65.7,4.2
	c-15.8,3.4-30.6,8.6-44,15.1c-18.2-3.5-37-5.4-56.2-5.4s-37.9,1.8-56,5.4c-13.4-6.5-28.1-11.6-44-15.1c-20.4-4.4-42.6-6-65.7-4.2
	c-7,0.5-12.5,3-15.5,6.2s-3.5,7.2-0.9,11l19.4,28.6c-44.2,4.2-92.1,23.2-135,55.7c-12.1,9.2-14.7,21-6.3,24.9l31.4,15.1
	c-42.3,33.5-79,82.4-102.6,141.6c-6,15-2.4,27.5,6.8,26.8l59.7-3.8c-12,30.1-20,63.5-22.7,99s0,73.2,9.3,111.4
	c4,16.5,14.6,25.2,21.7,19.3l49-39.2c9.8,39.4,28.5,79.6,57.8,115.9c29.2,36.2,69.4,68.5,118.5,90.4c8.6,3.8,16.8,5.1,22.7,4.2
	c6-0.9,9.6-3.9,9.7-8.5l1-100.5c13.6,2,27.6,3,41.8,3c14.2,0,28.2-1,41.9-3l1,100.5c0,4.6,3.7,7.6,9.6,8.5
	c5.9,0.9,14.1-0.4,22.7-4.2c49.1-21.9,89.3-54.2,118.5-90.4c29.3-36.3,48-76.5,57.8-115.9l49,39.2c7.1,5.9,17.7-2.9,21.7-19.3
	c9.3-38.2,12-75.9,9.3-111.4s-10.7-68.9-22.7-99l59.7,3.8C877.7,583.4,881.3,570.9,875.3,555.9z"/>
<g id="mouth4">
	<path id="tounge4" class="st1" d="M500,714.4c51.8,0,83.1,23.2,97.4,37.4l0,0c-20.2,27.2-51,48.1-97.8,48.1
		c-46.5,0-77.2-20.6-97.4-47.6l0,0C416.2,738.2,447.6,714.4,500,714.4z"/>
	<polygon id="teeth4" class="st2" points="380.9,569.9 615.5,569.9 615.5,725.3 567.8,590.6 546,636 522.8,595.7 500,639.7 
		473.7,595.7 450.5,636 428.7,590.6 380.9,725.3 	"/>
	<path id="throat4" class="st3" d="M646,632.8c0,0-1,75.5-39.4,129.8c0,0-3-4.5-9.3-10.7c-14.3-14.2-45.6-37.4-97.4-37.4
		c-52.4,0-83.8,23.7-97.9,37.9c-5.9,6-8.8,10.2-8.8,10.2C354.9,708.3,354,632.8,354,632.8V570h26.9v10.8v106.4l47.8-92.3l21.8,31.2
		l23.2-27.6l26.3,30.1l22.8-30.1L546,626l21.8-31.2l47.8,92.3V580.7v-10.8H646V632.8L646,632.8z"/>
</g>
<g id="eye4">
	<path id="eyedark4" class="st4" d="M397,427.9c0-11.9-9.6-21.4-21.4-21.4c-11.9,0-21.5,9.6-21.5,21.4c0,11.9,9.6,21.5,21.5,21.5
		C387.4,449.4,397,439.8,397,427.9z M451.4,449.5c0,33.9-27.5,61.4-61.4,61.4s-61.5-27.5-61.5-61.4c0-34,27.5-61.5,61.5-61.5
		C423.9,388,451.4,415.5,451.4,449.5z M427.7,466.8c0-5.9-4.8-10.7-10.7-10.7c-6,0-10.7,4.8-10.7,10.7c0,5.9,4.8,10.7,10.7,10.7
		C422.9,477.5,427.7,472.7,427.7,466.8z M613.6,429.2c0-11.9-9.6-21.5-21.5-21.5c-11.8,0-21.4,9.6-21.4,21.5
		c0,11.8,9.6,21.4,21.4,21.4C604,450.6,613.6,441,613.6,429.2z M644.3,468c0-6-4.8-10.7-10.7-10.7c-6,0-10.8,4.8-10.8,10.7
		c0,5.9,4.8,10.7,10.8,10.7C639.4,478.7,644.3,473.9,644.3,468z M668,450.6c0,33.9-27.5,61.5-61.5,61.5c-33.9,0-61.4-27.5-61.4-61.5
		c0-33.9,27.5-61.4,61.4-61.4C640.4,389.2,668,416.7,668,450.6z"/>
	<path id="eyelight4" class="st2" d="M427.7,466.8c0,5.9-4.8,10.7-10.7,10.7c-6,0-10.7-4.8-10.7-10.7c0-5.9,4.8-10.7,10.7-10.7
		C422.9,456.1,427.7,460.9,427.7,466.8z M397,427.9c0,11.9-9.6,21.5-21.4,21.5c-11.9,0-21.5-9.6-21.5-21.5s9.6-21.4,21.5-21.4
		C387.4,406.5,397,416,397,427.9z M284.7,449.5c0-58.1,47.2-105.2,105.3-105.2c55.9,0,101.5,43.6,104.9,98.6
		c-7.5,54.9-54.7,97.2-111.7,97.2c-33.6,0-63.8-14.7-84.5-38.1l0,0C289.8,486.5,284.7,468.6,284.7,449.5z M390,510.9
		c33.9,0,61.4-27.5,61.4-61.4c0-34-27.5-61.5-61.4-61.5s-61.5,27.5-61.5,61.5C328.5,483.4,356,510.9,390,510.9z M606.5,345.4
		c56,0,101.7,43.7,105,98.7c-7.6,54.9-54.7,97.1-111.7,97.1c-33.6,0-63.8-14.7-84.4-38l0,0c-8.9-15.5-14.1-33.4-14.1-52.6
		C501.3,392.5,548.4,345.4,606.5,345.4z M668,450.6c0-33.9-27.5-61.4-61.5-61.4c-33.9,0-61.4,27.5-61.4,61.4s27.5,61.5,61.4,61.5
		S668,484.5,668,450.6z M613.6,429.2c0,11.8-9.6,21.4-21.5,21.4c-11.8,0-21.4-9.6-21.4-21.4c0-11.9,9.6-21.5,21.4-21.5
		C604,407.7,613.6,417.3,613.6,429.2z M644.3,468c0,5.9-4.8,10.7-10.7,10.7c-6,0-10.8-4.8-10.8-10.7c0-6,4.8-10.7,10.8-10.7
		C639.4,457.3,644.3,462.1,644.3,468z"/>
</g>
<path id="brim" class="st5" d="M497.2,279.5c-156.7,0-224.8,28.8-224.8,28.8c-0.9-4.7-1.7-9.5-2.4-14.4l0,0
	c0,0,67.3-34.5,227.1-34.5c157.7,0,225.4,33.6,227.2,34.5c-0.6,4.8-1.4,9.6-2.4,14.4C722,308.3,653.9,279.5,497.2,279.5z
	 M272.4,308.3c0,0,68.1-28.8,224.8-28.8S722,308.3,722,308.3c-1.6,8.1-3.6,16-6,23.8C660.4,320.3,582.9,313,497.2,313
	s-163.2,7.3-218.8,19.1C276,324.3,274,316.4,272.4,308.3z"/>
<path id="hat4" class="st6" d="M270.1,293.9L270.1,293.9c-1.3-9.9-2-19.9-2-30.2c0-126.6,102.6-229.1,229.1-229.1
	c126.6,0,229.1,102.6,229.1,229.1c0,10.2-0.7,20.3-2,30.2c-1.8-0.9-69.4-34.5-227.2-34.5C337.4,259.4,270.1,293.9,270.1,293.9z"/>
<path id="lighthorn4" class="st7" d="M314,148c0,0,2.8,29.5-37.4,33.6c-55.3-74.6-50.8-162-50.8-162S248.2,97.6,314,148L314,148z
	 M717.8,181.6c55.3-74.6,50.8-162,50.8-162s-22.4,78-88.2,128.4l0,0C680.4,148,677.6,177.5,717.8,181.6z"/>
</svg>
