<?xml version="1.0" encoding="utf-8"?>
<!-- Generator: Adobe Illustrator 23.0.6, SVG Export Plug-In . SVG Version: 6.00 Build 0)  -->
<svg version="1.1" id="monster2" xmlns="http://www.w3.org/2000/svg" xmlns:xlink="http://www.w3.org/1999/xlink" x="0px" y="0px"
	 viewBox="0 0 1000 1000" style="enable-background:new 0 0 1000 1000;" xml:space="preserve">
<style type="text/css">
	.st0{fill:#94C128;}
	.st1{fill:#59AE33;}
	.st2{fill:#499834;}
	.st3{fill:#1E1F1D;}
	.st4{fill:#E62A46;}
	.st5{fill:#CD163B;}
	.st6{fill:#FFFFFF;}
	.st7{fill:#063E51;}
</style>
<g id="body2">
	<path id="lighthorn2" class="st0" d="M685.2,90.4l25.8,60.5l0,0c-0.3,3.7-1.4,6.3-3.4,7.1c-5.5,2.2-15.4-9.4-22.2-26l-4.2-9.2
		L679,118l-2.8-6.4l-11.6-26l25.1-17.1l5.9-4.1l4.5-3.1L709,55l18.7-13L755,23.4l15.8,13.5l8.1,6.9l3.8,3.2l2.7,2.2L806.9,67
		l21.4,17.8l5.4,4.4l2.8,2.3l4.3,3.7l17.5,15l-3.3,19.5l-1.6,9.6l-0.9,5.9l-3.6,23.8l-3.6,23.8l-1.8,11.8l-3.4,20L829,234.9
		l-2.8,2.6l-1.6,1.4l-3.1,3l-12.4,11.8l-24.6,23.6l-49.3,47.1c-5.1,5.2-10.7,10.6-16.6,15.8c-26.7,23.5-54.1,9.1-56.2-13.3
		l138.8-115l32.2-87.6l-84-73.6L685.2,90.4z M337.4,379L198.6,264l-32.3-87.6l84-73.7l64.5,39.7L289,202.9c0.3,3.8,1.4,6.3,3.4,7.1
		c5.5,2.2,15.4-9.5,22.2-26l4.2-9.2l2.2-4.8l2.8-6.4l11.5-26l-25.1-17.1l-5.9-4.1l-4.5-3.1l-9-6.3l-18.7-13L245,75.5L229.1,89
		l-8.1,6.9l-3.8,3.2l-2.7,2.2L193.1,119l-21.4,17.8l-5.4,4.4l-2.8,2.3l-4.3,3.7l-17.6,15l3.3,19.5l1.6,9.6l1,6L151,221l3.6,23.8
		l1.8,11.9l3.4,20L171,287l2.8,2.6l1.6,1.5l3,3l12.3,11.8l24.7,23.5l49.3,47.1c5.1,5.3,10.6,10.6,16.6,15.8
		C307.9,415.7,335.3,401.4,337.4,379L337.4,379L337.4,379z"/>
	<path id="wholebody" class="st1" d="M423.8,278.5c0,0,422.7-124.2,348.7,217.3s-109.9,425.1-19.1,422.7c90.7-2.4,81.2,43-66.9,57.3
		S669.8,794.3,536,803.9c-133.8,9.6-174.3,54.9-174.3,105.1c0,50.2-7.2,67.6-66.9,67.6s-126.6-3.2-59.7-43.8s71.6-52.5,45.4-207.8
		C254.3,569.8,99,362.1,423.8,278.5z"/>
	<path id="spot" class="st2" d="M735.8,601c-4.4,20.8-15.2,40.1-28.6,30.2c-21.8-16.2,5-83.6,25.3-68.4
		C738.8,567.5,739.3,584.7,735.8,601z M751.9,526.2c-2.2,10.4-7.6,20.1-14.3,15.1c-10.9-8.1,2.5-41.8,12.6-34.2
		C753.4,509.4,753.7,518,751.9,526.2z M703.8,543.6c-1.2,5.6-4.1,10.8-7.7,8.1c-5.9-4.3,1.4-22.5,6.8-18.4
		C704.6,534.7,704.7,539.3,703.8,543.6z M682.8,585.3c-1.8,8.7-6.4,16.8-12,12.7c-9.2-6.8,2.1-35.1,10.6-28.7
		C684,571.3,684.2,578.5,682.8,585.3z M686.6,617.2c-0.7,3.5-2.6,6.7-4.8,5.1c-3.7-2.7,0.8-14.1,4.2-11.5
		C687.1,611.5,687.1,614.4,686.6,617.2z M670.3,543.3c-0.7,3.5-2.6,6.7-4.8,5.1c-3.7-2.7,0.8-14.1,4.2-11.5
		C670.8,537.6,670.8,540.5,670.3,543.3z M764.1,486.4c-1.2,5.7-4.2,11-7.8,8.3c-6-4.4,1.4-22.9,6.9-18.7
		C764.9,477.2,765,481.9,764.1,486.4z M727.4,497.3c-2.2,10.6-7.7,20.5-14.6,15.4c-11.1-8.2,2.6-42.6,12.9-34.9
		C728.9,480.2,729.1,489,727.4,497.3z M723.3,660.5c-1.2,5.7-4.2,11-7.8,8.3c-6-4.4,1.4-22.9,6.9-18.7
		C724.1,651.4,724.2,656.1,723.3,660.5z"/>
</g>
<g id="mouth2">
	<path id="throat2" class="st3" d="M365.7,744.6c6.8-5.1,13.5-9.9,20-14.5c149-103.9,248.8-78.7,287-61.5
		c11.5,5.2,17.4,9.6,17.4,9.6c28.9-77.8,31.3-109.4,26.5-141.6l-38.9,61.3l-42.6-49.2l-29,59.9l-42.5-49.2l-36.9,61l-39.9-49.6
		L455.2,631l-39.9-49.6l-28.9,59.9l-39.9-49.6L328.1,650l-47.3-48.5C289.7,660.9,321.4,711.1,365.7,744.6L365.7,744.6z"/>
	<path id="tounge2" class="st4" d="M672.7,668.5c-38.1-17.1-138-42.4-287,61.5c0,0,67.2,42.1,149.4,29.8
		C617.3,747.6,672.7,668.5,672.7,668.5z"/>
	<path id="lip2" class="st5" d="M690.1,678.2c0,0-5.9-4.4-17.4-9.6c0,0-55.4,79.1-137.6,91.3c-82.2,12.3-149.4-29.8-149.4-29.8
		c-6.5,4.6-13.3,9.4-20,14.5l-0.1,0.1c45.7,34.5,104.5,51.4,165.6,42.3c60.1-9,111-41.5,144.5-86.8
		C681,693.1,685.7,685.8,690.1,678.2z"/>
</g>
<g id="eyes2">
	<path id="eyewhite2" class="st6" d="M334.7,441.7c0-13.8,11.1-24.9,24.9-24.9c13.7,0,24.9,11.1,24.9,24.9s-11.1,24.9-24.9,24.9
		C345.8,466.7,334.7,455.5,334.7,441.7z M447.7,466.8c0-39.5-32-71.4-71.4-71.4s-71.4,32-71.4,71.4s32,71.3,71.4,71.3
		S447.7,506.2,447.7,466.8z M376.3,344.5c64.9,0,118,50.6,121.9,114.6C489.5,522.9,434.7,572,368.5,572c-39.1,0-74.1-17.1-98.1-44.2
		l0,0c-10.4-18-16.4-38.8-16.4-61C254,399.2,308.8,344.5,376.3,344.5z M395.2,486.9c0-6.9,5.6-12.5,12.5-12.5
		c6.8,0,12.4,5.6,12.4,12.5s-5.6,12.5-12.4,12.5C400.8,499.4,395.2,493.8,395.2,486.9z M608,366.1c12.8,0,23.3,10.4,23.3,23.3
		c0,12.8-10.4,23.2-23.3,23.2c-12.8,0-23.2-10.4-23.2-23.2C584.8,376.5,595.2,366.1,608,366.1z M641.3,431.5
		c0-6.5,5.2-11.6,11.7-11.6c6.4,0,11.6,5.2,11.6,11.6s-5.2,11.6-11.6,11.6C646.5,443.1,641.3,437.9,641.3,431.5z M509.6,412.7
		c0-63,51.1-114,114.1-114c60.7,0,110.2,47.3,113.8,107c-8.3,59.5-59.3,105.3-121,105.3c-36.4,0-69.2-16-91.5-41.2l0,0
		C515.1,452.9,509.6,433.4,509.6,412.7z M690.2,412.7c0-36.8-29.8-66.6-66.6-66.6S557,375.9,557,412.7s29.8,66.6,66.6,66.6
		C660.4,479.3,690.2,449.4,690.2,412.7z"/>
	<path id="darkeye2" class="st7" d="M376.3,395.4c39.4,0,71.4,32,71.4,71.4s-32,71.3-71.4,71.3s-71.4-31.9-71.4-71.3
		C304.9,427.3,336.9,395.4,376.3,395.4z M420.1,486.9c0-6.9-5.6-12.5-12.4-12.5c-6.9,0-12.5,5.6-12.5,12.5s5.6,12.5,12.5,12.5
		S420.1,493.8,420.1,486.9z M359.6,416.8c-13.8,0-24.9,11.1-24.9,24.9s11.1,24.9,24.9,24.9c13.7,0,24.9-11.2,24.9-24.9
		C384.5,427.9,373.4,416.8,359.6,416.8z M623.6,346.1c36.8,0,66.6,29.8,66.6,66.6s-29.8,66.6-66.6,66.6S557,449.5,557,412.7
		S586.8,346.1,623.6,346.1z M631.3,389.4c0-12.9-10.4-23.3-23.3-23.3c-12.8,0-23.2,10.4-23.2,23.3c0,12.8,10.4,23.2,23.2,23.2
		C620.9,412.6,631.3,402.2,631.3,389.4z M653,419.9c-6.5,0-11.7,5.2-11.7,11.6s5.2,11.6,11.7,11.6c6.4,0,11.6-5.2,11.6-11.6
		S659.3,419.9,653,419.9z"/>
</g>
</svg>
