<?xml version="1.0" encoding="utf-8"?>
<!-- Generator: Adobe Illustrator 23.0.6, SVG Export Plug-In . SVG Version: 6.00 Build 0)  -->
<svg version="1.1" id="monster6" xmlns="http://www.w3.org/2000/svg" xmlns:xlink="http://www.w3.org/1999/xlink" x="0px" y="0px"
	 viewBox="0 0 1000 1000" style="enable-background:new 0 0 1000 1000;" xml:space="preserve">
<style type="text/css">
	.st0{fill:#C83C5A;}
	.st1{fill:#EA6379;}
	.st2{fill:#F2AABB;}
	.st3{fill:#FFFFFF;}
	.st4{fill:#063E51;}
	.st5{fill:#E52923;}
	.st6{fill:#1E1F1D;}
</style>
<g id="leg6">
	<path id="legshadow" class="st0" d="M358.3,827.3v-17.8c0,0,29.9,1.5,45.9,9.5v19.9C390,832.6,374.6,828.6,358.3,827.3z
		 M580.4,819.1V839c14.2-6.3,29.7-10.4,45.9-11.6v-17.8C626.2,809.6,596.4,811.1,580.4,819.1z M722,932.5c-2.7,3.3-4.4,7.5-4.4,12.2
		c0,10.6,8.6,19.1,19.2,19.1c4.2,0,8-1.4,11.2-3.7C721.2,957.9,722,932.5,722,932.5z M700.5,882.8c-2.7,3.3-4.4,7.5-4.4,12.2
		c0,10.5,8.6,19.1,19.2,19.1c4.2,0,8-1.4,11.2-3.7C699.7,908.2,700.5,882.8,700.5,882.8z M262.5,932.5c2.7,3.3,4.4,7.5,4.4,12.2
		c0,10.6-8.6,19.1-19.2,19.1c-4.2,0-8-1.4-11.2-3.7C263.3,957.9,262.5,932.5,262.5,932.5z M284.1,882.8c2.7,3.3,4.4,7.5,4.4,12.2
		c0,10.5-8.6,19.1-19.1,19.1c-4.2,0-8.1-1.4-11.2-3.7C284.9,908.2,284.1,882.8,284.1,882.8L284.1,882.8z"/>
	<path id="twoleg" class="st1" d="M358.3,809.6V439.9h45.9v379.2C388.2,811.1,358.3,809.6,358.3,809.6z M626.2,439.9h-45.9v379.2
		c16.1-8,45.9-9.5,45.9-9.5V439.9L626.2,439.9z M486.5,965.7c0,5.5-0.4,11-1,16.4H209.9c-0.6-5.3-1-10.8-1-16.4
		c0-76.6,62.2-138.7,138.8-138.7c3.6,0,7.1,0.1,10.6,0.4c16.2,1.2,31.7,5.2,45.9,11.6C452.7,860.6,486.5,909.2,486.5,965.7z
		 M288.5,894.9c0-4.6-1.6-8.9-4.4-12.2c-3.5-4.3-8.8-7-14.7-7c-10.5,0-19.2,8.5-19.2,19.1c0,6.3,3.1,12,7.9,15.4
		c3.2,2.3,7,3.7,11.2,3.7C279.9,914,288.5,905.5,288.5,894.9z M266.9,944.6c0-4.6-1.6-8.9-4.4-12.2c-3.5-4.2-8.8-7-14.8-7
		c-10.5,0-19.1,8.6-19.1,19.1c0,6.4,3.1,12,7.9,15.5c3.2,2.3,7,3.7,11.2,3.7C258.3,963.8,266.9,955.2,266.9,944.6z M696.1,894.9
		c0-4.6,1.6-8.9,4.4-12.2c3.5-4.3,8.8-7,14.8-7c10.5,0,19.1,8.5,19.1,19.1c0,6.3-3.1,12-7.9,15.4c-3.2,2.3-7,3.7-11.2,3.7
		C704.7,914,696.1,905.5,696.1,894.9z M736.8,925.5c10.5,0,19.1,8.6,19.1,19.1c0,6.4-3.1,12-7.9,15.5c-3.2,2.3-7,3.7-11.2,3.7
		c-10.6,0-19.2-8.5-19.2-19.1c0-4.6,1.6-8.9,4.4-12.2C725.5,928.2,730.9,925.5,736.8,925.5z M774.6,982c0.6-5.3,1-10.8,1-16.4
		c0-76.6-62.2-138.7-138.8-138.7c-3.6,0-7.1,0.1-10.6,0.4c-16.2,1.2-31.7,5.2-45.9,11.6c-48.5,21.6-82.2,70.2-82.2,126.8
		c0,5.5,0.4,11,1,16.4L774.6,982L774.6,982z"/>
	<path id="leglight" class="st2" d="M284.1,882.8c0,0,0.8,25.4-25.9,27.6c-4.8-3.4-7.9-9.1-7.9-15.4c0-10.6,8.6-19.1,19.2-19.1
		C275.3,875.8,280.6,878.5,284.1,882.8L284.1,882.8L284.1,882.8z M262.5,932.5c0,0,0.8,25.4-26,27.6c-4.8-3.4-7.9-9.1-7.9-15.5
		c0-10.5,8.6-19.1,19.1-19.1C253.7,925.5,259,928.2,262.5,932.5z M700.5,882.8c0,0-0.8,25.4,26,27.6c4.8-3.4,7.9-9.1,7.9-15.4
		c0-10.6-8.6-19.1-19.1-19.1C709.3,875.8,704,878.5,700.5,882.8z M755.9,944.6c0-10.5-8.6-19.1-19.1-19.1c-6,0-11.3,2.7-14.8,7
		c0,0-0.8,25.4,26,27.6C752.8,956.7,755.9,951,755.9,944.6z"/>
</g>
<path id="body6" class="st1" d="M652.5,140.1c32.8-34.2,65.2-44.5,65.2-44.5c-42.2,4.1-76.6,13.2-103.8,23.7
	c-25.7-11.4-53.5-19-82.6-22.1C600.8,40.3,659.6,18,659.6,18C359.1,72.9,288,195.7,288,195.7l0,0c-40.1,48.2-64.3,110.1-64.3,177.7
	c0,153.5,124.4,277.9,277.9,277.9s277.9-124.4,277.9-277.9C779.6,275.5,728.9,189.6,652.5,140.1z"/>
<g id="eye6">
	<path id="eyelight6" class="st3" d="M347.2,174.1c71,0,129.1,55.4,133.4,125.4c-9.5,69.8-69.5,123.6-142,123.6
		c-42.7,0-81.1-18.7-107.4-48.4l0,0c-11.4-19.6-17.9-42.5-17.9-66.8C213.3,234,273.3,174.1,347.2,174.1z M425.3,307.9
		c0-43.2-35-78.2-78.1-78.2c-43.2,0-78.1,35-78.1,78.2c0,43.1,35,78.1,78.1,78.1S425.3,351,425.3,307.9z M301.6,280.5
		c0-15.1,12.2-27.3,27.3-27.3c15,0,27.2,12.1,27.2,27.3c0,15.1-12.2,27.3-27.2,27.3C313.8,307.8,301.6,295.6,301.6,280.5z
		 M381.6,316.3c7.5,0,13.6,6.1,13.6,13.7c0,7.5-6.1,13.6-13.6,13.6c-7.6,0-13.7-6.1-13.7-13.6S374,316.3,381.6,316.3z M691.7,317.1
		c7.5,0,13.6,6.1,13.6,13.7c0,7.5-6.1,13.6-13.6,13.6c-7.6,0-13.7-6.1-13.7-13.6C678,323.2,684.1,317.1,691.7,317.1z M611.8,281.3
		c0-15.1,12.2-27.3,27.2-27.3c15.1,0,27.3,12.2,27.3,27.3c0,15-12.2,27.2-27.3,27.2C624,308.6,611.8,296.4,611.8,281.3z
		 M735.4,308.6c0-43.1-35-78.1-78.1-78.1c-43.2,0-78.1,35-78.1,78.1s34.9,78.1,78.1,78.1C700.4,386.8,735.4,351.8,735.4,308.6z
		 M523.5,308.6c0-73.9,59.9-133.8,133.8-133.8c71.1,0,129.3,55.5,133.6,125.4c-9.7,69.8-69.6,123.6-142,123.6
		c-42.8,0-81.2-18.7-107.4-48.4l0,0C530,355.9,523.5,333,523.5,308.6z"/>
	<path id="eyedark6" class="st4" d="M269,307.9c0-43.2,35-78.2,78.1-78.2s78.1,35,78.1,78.2c0,43.1-35,78.1-78.1,78.1
		S269,351,269,307.9z M395.2,330c0-7.5-6.1-13.7-13.6-13.7c-7.6,0-13.7,6.1-13.7,13.7c0,7.5,6.1,13.6,13.7,13.6
		C389.1,343.6,395.2,337.5,395.2,330z M356.2,280.5c0-15.1-12.2-27.3-27.2-27.3c-15.1,0-27.3,12.1-27.3,27.3
		c0,15.1,12.2,27.3,27.3,27.3C344,307.8,356.2,295.6,356.2,280.5z M735.4,308.6c0,43.1-35,78.1-78.1,78.1c-43.2,0-78.1-35-78.1-78.1
		s34.9-78.1,78.1-78.1C700.4,230.6,735.4,265.5,735.4,308.6z M705.3,330.8c0-7.6-6.1-13.7-13.6-13.7c-7.6,0-13.7,6.1-13.7,13.7
		c0,7.5,6.1,13.6,13.7,13.6C699.2,344.4,705.3,338.3,705.3,330.8z M639,254c-15,0-27.2,12.2-27.2,27.3c0,15,12.2,27.2,27.2,27.2
		c15.1,0,27.3-12.2,27.3-27.2C666.3,266.2,654.1,254,639,254z"/>
</g>
<g id="mouth6">
	<path id="tounge6" class="st5" d="M440.3,589.9c10-13.3,31-22.7,55.8-23.7l4.4,5.6l4.4-5.6c24.7,1,45.8,10.4,55.7,23.7
		c-0.8,0.5-25.5,15.4-60.1,15.4C465.8,605.3,441.2,590.4,440.3,589.9z"/>
	<path id="blackmouth" class="st6" d="M373.6,491.2h256.2c-5.2,43.9-32.5,81-70.4,100c-0.7-1-1.4-1.9-2.3-2.9
		c-9.2-10.1-28.6-17.2-51.4-18l-4,4.2l-4-4.2c-22.8,0.8-42.2,7.9-51.4,18c-0.9,0.9-1.6,1.9-2.3,2.8
		C406,572.2,378.8,535.1,373.6,491.2z"/>
</g>
</svg>
