<?xml version="1.0" encoding="utf-8"?>
<!-- Generator: Adobe Illustrator 23.0.6, SVG Export Plug-In . SVG Version: 6.00 Build 0)  -->
<svg version="1.1" id="monster9" xmlns="http://www.w3.org/2000/svg" xmlns:xlink="http://www.w3.org/1999/xlink" x="0px" y="0px"
	 viewBox="0 0 1000 1000" style="enable-background:new 0 0 1000 1000;" xml:space="preserve">
<style type="text/css">
	.st0{fill:#4081C2;}
	.st1{fill:#66A0D7;}
	.st2{fill:#1E1F1D;}
	.st3{fill:url(#blueeyes9_1_);}
	.st4{fill:#FFFFFF;}
</style>
<path id="lighthorn9" class="st0" d="M344.7,349.9l-146-121l-34-92.1l88.4-77.5L321,101l-27.1,63.6l0,0c0.3,4,1.5,6.6,3.6,7.5
	c5.8,2.3,16.2-9.9,23.4-27.4l4.4-9.7l2.3-5.1l3-6.7l12.2-27.3l-26.5-18l-6.2-4.3l-4.7-3.3l-9.4-6.6L276.4,50l-28.8-19.5L231,44.8
	l-8.5,7.2l-4,3.4l-2.8,2.3l-22.5,18.7l-22.5,18.7l-5.7,4.7l-2.9,2.4l-4.5,3.9l-18.5,15.8l3.5,20.5l1.7,10.1l1,6.2l3.8,25l3.8,25
	l1.9,12.5l3.5,21L170,253l2.9,2.7l1.6,1.5l3.2,3.1l13,12.4l25.9,24.8l51.9,49.6c5.3,5.6,11.2,11.2,17.4,16.7
	C313.6,388.5,342.5,373.4,344.7,349.9L344.7,349.9L344.7,349.9z M604.1,95.9l26.4-18l6.2-4.3l4.7-3.3l9.4-6.6L670.4,50l28.8-19.5
	L716,44.8l8.5,7.2l4,3.4l2.8,2.3l22.5,18.7l22.6,18.7l5.6,4.7l2.9,2.4l4.5,3.9l18.5,15.8l-3.5,20.5l-1.7,10.1l-0.9,6.2l-3.8,25
	l-3.8,25l-1.9,12.5l-3.6,21L777,253l-2.9,2.7l-1.6,1.5l-3.2,3.1l-13,12.4l-25.9,24.8l-51.9,49.6c-5.4,5.6-11.2,11.2-17.4,16.7
	c-28,24.7-56.9,9.6-59.1-13.9l146-121l34-92.1l-88.4-77.5L625.7,101l27.1,63.6l0,0c-0.3,3.9-1.5,6.6-3.6,7.5
	c-5.8,2.3-16.2-9.9-23.4-27.4l-4.4-9.7l-2.3-5.1l-3-6.7L604.1,95.9z"/>
<path id="thebody9" class="st1" d="M203.1,968.8C54.8,977-44.6,903.7,79.2,891.4C203.1,879.2,143,643,129.9,443.3
	c0,0-6.6-65.3,38.5-118.4c0.1-0.1,58.6-98,268.7-108.9l0,0c0,0,330.1-17.3,313.8,296.3c-13.7,264.3-30.4,309.6,20.8,332.8l0,0
	c9.5,7.1,22.1,10.7,36.2,12l0,0c55.4,5.1,135.3-24.8,155.1-14.7c31.9,16.3,18.8,126.9-152,126.9s-178.3-99.1-178.3-99.1
	s-24.4,99.1-133.2,99.1s-95.7-110.6-95.7-110.6S351.3,960.7,203.1,968.8z"/>
<g id="eye9">
	<path id="blackeyes9" class="st2" d="M495,485.6c0-23.4-19-42.4-42.4-42.4s-42.4,19-42.4,42.4s19,42.4,42.4,42.4
		C476,527.9,495,509,495,485.6z M452.6,422.9c64.1,0,116.1,52,116.1,116.1s-52,116.1-116.1,116.1s-116-52-116-116.1
		S388.5,422.9,452.6,422.9z M392.5,521.3c-11.8,0-21.2,9.5-21.2,21.2s9.5,21.2,21.2,21.2s21.2-9.5,21.2-21.2
		S404.2,521.3,392.5,521.3z"/>
	
		<linearGradient id="blueeyes9_1_" gradientUnits="userSpaceOnUse" x1="273.1" y1="668.95" x2="632.2" y2="668.95" gradientTransform="matrix(1 0 0 -1 0 1208)">
		<stop  offset="0" style="stop-color:#2273B7"/>
		<stop  offset="0.6" style="stop-color:#3DA4DD"/>
	</linearGradient>
	<path id="blueeyes9" class="st3" d="M452.6,422.9c-64.1,0-116,52-116,116.1s51.9,116.1,116,116.1s116.1-52,116.1-116.1
		S516.7,422.9,452.6,422.9z M273.1,539c0-99.2,80.4-179.5,179.5-179.5c99.2,0,179.6,80.4,179.6,179.5s-80.4,179.6-179.6,179.6
		S273.1,638.1,273.1,539z"/>
	<path id="whiteeyes" class="st4" d="M371.3,542.5c0-11.7,9.5-21.2,21.2-21.2s21.2,9.5,21.2,21.2s-9.5,21.2-21.2,21.2
		S371.3,554.2,371.3,542.5z M452.6,443.2c23.4,0,42.4,19,42.4,42.4S476,528,452.6,528s-42.4-19-42.4-42.4
		C410.2,462.1,429.2,443.2,452.6,443.2z M632.2,539c0-99.2-80.4-179.5-179.6-179.5S273.1,439.9,273.1,539s80.4,179.6,179.5,179.6
		C551.8,718.6,632.2,638.1,632.2,539z M452.6,267.3c150.1,0,271.7,121.6,271.7,271.8S602.7,810.8,452.6,810.8S180.9,689.2,180.9,539
		S302.5,267.3,452.6,267.3z"/>
</g>
</svg>
