<?xml version="1.0" encoding="utf-8"?>
<!-- Generator: Adobe Illustrator 23.0.6, SVG Export Plug-In . SVG Version: 6.00 Build 0)  -->
<svg version="1.1" id="monster5" xmlns="http://www.w3.org/2000/svg" xmlns:xlink="http://www.w3.org/1999/xlink" x="0px" y="0px"
	 viewBox="0 0 1000 1000" style="enable-background:new 0 0 1000 1000;" xml:space="preserve">
<style type="text/css">
	.st0{fill:#566EB3;}
	.st1{fill:#66A0D7;}
	.st2{fill:#E43333;}
	.st3{fill:#1E1F1D;}
	.st4{fill:#FFFFFF;}
</style>
<path id="foot5" class="st0" d="M617.9,938.1c-34.8,9.4-34.8,9.4-34.8,9.4l28-10.8c0,0,0.7-11.7-22.7-6.7
	c-10.4,2.2-26.3,7.6-40.6,14l55-213.1h-34l-38.1,221.8c-9.6,5.6-16.3,11.4-16.3,16.1h120.2C634.5,968.8,652.6,928.7,617.9,938.1z
	 M384.2,938.1c34.8,9.4,34.8,9.4,34.8,9.4l-28-10.8c0,0-0.8-11.7,22.7-6.7c10.4,2.2,26.3,7.6,40.6,14l-54.9-213.1h34l38.1,221.8
	c9.6,5.6,16.3,11.4,16.3,16.1H367.5C367.5,968.8,349.4,928.7,384.2,938.1z"/>
<path id="body5" class="st1" d="M271.2,141.6C341,44.7,501,31.2,501,31.2s160,13.5,229.8,110.4c0,0-42.8-12.9-56.3-9.8
	c0,0,71.7,32.7,114.7,115.9c-0.9-0.9-29.7-29.5-62.9-36.2c0,0,58.6,41.6,90.1,151.5c-1-1.2-32.6-41.1-65.6-43.3
	c0,0,65.6,146.5,65.6,279.4c0,60.7-26.7,117.5-73.6,161.5l0,0C690,798.5,620,823.7,538.1,828.1C344.3,838.6,204.8,726.7,197.4,589
	c-2.8-51.5,3.8-105.4,13.1-152.8v-0.1c18.6-67.3,40.6-116.5,40.6-116.5c-33,2.2-64.6,42.1-65.6,43.3
	c31.6-109.8,90.1-151.5,90.1-151.5c-33.3,6.6-62,35.3-62.9,36.2c43-83.2,114.8-115.9,114.8-115.9C314,128.7,271.2,141.6,271.2,141.6
	z"/>
<path id="leg5" class="st1" d="M45.6,639.5c8.7-7.8,21.7-17.9,35.3-23c22-61.1,55.9-118.5,105.4-161.4
	c21.3-18.5,46.5-36.6,73.7-45.4c19-6.1,27,23.7,8.1,29.8c-1.3,0.4-2.7,1-4,1.5c-1,0.4-1.9,0.8-2.9,1.3c-2.8,1.3-5.5,2.6-8.2,4
	c-16.3,8.4-30.6,18.5-43.7,29.5c-44.5,37.7-75.6,88-96.2,142.1c0.5,0.4,1.1,0.7,1.6,1.1c13.7,10.4,14.6,28.7,17.8,44
	c3.1,14.8,40.6,49.5,14.8,60.2c-26.9,11.1-31.5-38.9-49.1-38c-13.5,0.7-7.4,28.3-6.3,35.8c2.5,17.9,10,38.8,3.3,56.4
	c-9.4,24.8-39.6,9.5-52.7-2.8c-15.9-14.8-23-38.7-24.9-59.8C15.2,686.7,24.3,658.7,45.6,639.5z M954.4,620.3
	c-8.7-7.8-21.7-17.9-35.3-23c-22-61.1-55.9-118.5-105.4-161.4c-21.3-18.5-46.5-36.6-73.7-45.4c-19-6.2-27,23.7-8.1,29.8
	c1.4,0.4,2.7,1,4,1.5c1,0.4,2,0.8,2.9,1.3c2.8,1.3,5.5,2.6,8.2,4c16.3,8.5,30.6,18.5,43.7,29.6c44.4,37.6,75.6,88,96.2,142.1
	c-0.5,0.4-1.1,0.7-1.6,1.1c-13.7,10.4-14.6,28.6-17.8,44c-3.1,14.8-40.6,49.5-14.8,60.2c26.9,11.1,31.5-38.9,49.1-38
	c13.5,0.7,7.4,28.3,6.3,35.8c-2.5,17.9-10,38.8-3.3,56.4c9.4,24.8,39.6,9.5,52.7-2.7c15.9-14.8,23-38.7,24.9-59.8
	C984.8,667.5,975.7,639.5,954.4,620.3z"/>
<g id="mouth5">
	<path id="tounge5" class="st2" d="M502.2,600.5c86.9,0,139.3,34.3,163.2,55.3h-0.1c-33.9,40.3-85.5,71.2-163.9,71.2
		c-78.1,0-129.5-30.5-163.5-70.5C361.6,635.6,414.3,600.5,502.2,600.5z"/>
	<path id="throat5" class="st3" d="M643.1,655.8c-21.1-21-67.5-55.3-144.1-55.3c-77.6,0-124.1,35.1-144.9,56
		c-8.8,8.8-13,15.1-13,15.1l0,0c-56.9-80.4-58.3-192.2-58.3-192.2v-93.1h39.9v16V560l70.7-136.6l32.3,46.1l34.4-40.8l39,44.5
		l33.7-44.5l34.4,40.8l32.3-46.1L670,560V402.5v-16h45.2v93.1c0,0-1.4,111.8-58.3,192.2l0,0C656.9,671.7,652.4,665,643.1,655.8z"/>
	<polygon id="teeth5" class="st4" points="532.7,428.7 499,473.2 460,428.7 425.6,469.5 393.4,423.4 322.6,560 322.6,402.5 
		670,402.5 670,560 599.4,423.4 567.1,469.5 	"/>
</g>
<path id="glasses5" class="st3" d="M243.9,238.3c-0.6,3.9-0.3,7.6,0.2,11.1c0.7,3.7,1.5,6.4,2.2,9.4c1.5,6,3.2,11.8,4.9,17.7
	c6.9,23.4,14.4,46.5,22.2,69.5c0-0.5-0.8-12.9-3.9-33.2c-1.6-10.4-3.8-22.9-6.6-37l-4.6-22.2c-0.8-4.1-1.5-7.4-1.4-10.7
	s0.9-6,2.5-8.1c3.3-4.7,11.7-7.1,18.8-7.4h0.1c55.5-2.7,91.2-12.8,91.2-12.8h-91.1l0,0c-3.6,0-7,0.3-10.5,1s-7,1.8-10.4,3.6
	s-6.7,4.4-9.2,7.8C245.9,230.3,244.4,234.4,243.9,238.3z M690.2,405.2c11.6-10.5,20.2-23.1,27.3-36.2c7.1-13.2,12.6-26.8,17.3-40.7
	c-0.4,0.4-6.1,7.9-14.9,20.1c-4.6,6.3-10,13.8-16.3,21.9s-13.6,16.9-22.4,24.8c-8.8,7.9-18,13.4-27.3,16.4c-4.7,1.5-9.2,2.4-13.8,3
	c-4.5,0.7-8.7,1.2-12.6,1.6c-7.7,0.8-14.1,1.1-18.5,1.2l-6.9,0.2c7.2,2.3,14.7,4,22.2,5c3.8,0.5,7.5,0.9,11.3,1.1
	c1.9,0.1,3.8,0.1,5.7,0.2h2.8c1,0,2,0,3-0.1c8-0.3,16-2.3,23.3-5.6C677.8,414.9,684.4,410.3,690.2,405.2z M348.6,440.2
	c-86.8,0-112.3-157.7-121.2-199.4c-9-41.7,34.4-45.1,34.4-45.1H440h116.8h178.1c0,0,43.4,3.4,34.4,45.1S734.9,440.2,648,440.2
	c-86.8,0-130.2-66.4-130.2-108.3s0-73.4,0-73.4s3-17.7-19.4-17.7c-22.5,0-19.5,17.7-19.5,17.7s0,31.5,0,73.4
	C478.9,373.9,435.5,440.2,348.6,440.2z M387.8,214.6c21.5,25.3-70.5,159-108.9,146.1c-3-1-5.8-2.9-25.3-51.2
	c-23.8-59.1-26.1-72.6-19.7-84.8c7-13.3,21.1-18.5,25.7-20.2c22.7-8.5,36.3,4,74.4,8.2C371.6,216.8,381.4,207.1,387.8,214.6z
	 M626.8,392.7l52-35l66.2-48.7L723,376l-39.9,47.8l-64.6,6.2l-44.3-22L626.8,392.7z"/>
</svg>
