<?xml version="1.0" encoding="utf-8"?>
<!-- Generator: Adobe Illustrator 23.0.6, SVG Export Plug-In . SVG Version: 6.00 Build 0)  -->
<svg version="1.1" id="monster3" xmlns="http://www.w3.org/2000/svg" xmlns:xlink="http://www.w3.org/1999/xlink" x="0px" y="0px"
	 viewBox="0 0 1000 1000" style="enable-background:new 0 0 1000 1000;" xml:space="preserve">
<style type="text/css">
	.st0{fill:#E62A3B;}
	.st1{fill:#CA152C;}
	.st2{fill:#FFFFFF;}
	.st3{fill:#4D96FF;}
	.st4{fill:#1E1F1D;}
	.st5{fill:#FF7373;}
</style>
<path id="body3" class="st0" d="M753.1,265.6l46.7-105.3c10.5-23.6-0.3-34.4-23.9-23.9l-130,57.7c-25-10.9-51.5-19.1-79-24.2
	l-50-129.6c-9.3-24.1-24.5-24.1-33.8,0l-50,129.6c-27.2,5-53.3,13.1-78,23.7l-129-57.2c-23.6-10.5-34.3,0.3-23.9,23.9l46.1,103.9
	C178.2,330.8,134.4,425,134.4,529.3c0,13.5,0.7,26.8,2.2,39.9l43.1,408.5h139.4L354,864.6c44.7,19.5,94.1,30.4,146,30.4
	s101.3-10.9,146.1-30.4l34.8,113.1h139.5l43-407.7c1.5-13.4,2.3-26.9,2.3-40.6C865.6,425.7,822.4,332.1,753.1,265.6z"/>
<path id="bodyshadow3" class="st1" d="M753.1,265.6c0,0,80.1,169.4,51.7,364.1C788.4,742.5,766.5,881,751,977.6h69.3l43-407.7
	c1.5-13.3,2.3-26.9,2.3-40.6C865.6,425.7,822.4,332.1,753.1,265.6z"/>
<g id="eye3">
	<path id="eyewhite3" class="st2" d="M335.2,436.1c-5.5,0-9.9-4.4-9.9-9.9s4.4-9.9,9.9-9.9s9.9,4.4,9.9,9.9S340.6,436.1,335.2,436.1
		z M363.2,508.4c46.3,0,83.9-37.6,83.9-83.9s-37.5-83.9-83.9-83.9c-46.3,0-83.9,37.5-83.9,83.9C279.4,470.9,316.9,508.4,363.2,508.4
		z M490.1,424.6c0,70.1-56.8,126.9-126.9,126.9s-126.9-56.8-126.9-126.9s56.8-126.9,126.9-126.9
		C433.3,297.6,490.1,354.4,490.1,424.6z M363.2,419.4c-10.9,0-19.8-8.9-19.8-19.8s8.9-19.8,19.8-19.8s19.8,8.9,19.8,19.8
		S374.2,419.4,363.2,419.4z M629.5,421c10.9,0,19.8-8.9,19.8-19.8s-8.9-19.8-19.8-19.8c-10.9,0-19.8,8.9-19.8,19.8
		S618.6,421,629.5,421z M629.5,510.1c-46.3,0-83.9-37.6-83.9-83.9s37.5-83.9,83.9-83.9c46.3,0,83.9,37.5,83.9,83.9
		C713.4,472.5,675.8,510.1,629.5,510.1z M502.6,426.2c0,70.1,56.8,126.9,126.9,126.9s126.9-56.8,126.9-126.9
		s-56.8-126.9-126.9-126.9C559.4,299.3,502.6,356.1,502.6,426.2z M647.7,427.8c0,5.5,4.4,9.9,9.9,9.9s9.9-4.4,9.9-9.9
		s-4.4-9.9-9.9-9.9C652.1,417.9,647.7,422.3,647.7,427.8z"/>
	<path id="blueeye" class="st3" d="M447.1,424.6c0,46.3-37.5,83.9-83.9,83.9c-46.3,0-83.9-37.6-83.9-83.9s37.5-83.9,83.9-83.9
		S447.1,378.2,447.1,424.6z M363.2,478.8c30,0,54.2-24.3,54.2-54.2c0-29.9-24.3-54.2-54.2-54.2c-29.9,0-54.2,24.3-54.2,54.2
		S333.3,478.8,363.2,478.8z M545.6,426.2c0,46.3,37.5,83.9,83.9,83.9c46.3,0,83.9-37.6,83.9-83.9s-37.5-83.9-83.9-83.9
		C583.2,342.3,545.6,379.9,545.6,426.2z M629.5,480.4c-30,0-54.2-24.3-54.2-54.2c0-29.9,24.3-54.2,54.2-54.2s54.2,24.3,54.2,54.2
		S659.4,480.4,629.5,480.4z"/>
	<path id="blackeye3" class="st4" d="M363.2,478.8c-29.9,0-54.2-24.3-54.2-54.2c0-29.9,24.3-54.2,54.2-54.2
		c30,0,54.2,24.3,54.2,54.2C417.5,454.5,393.2,478.8,363.2,478.8z M325.3,426.2c0,5.5,4.4,9.9,9.9,9.9s9.9-4.4,9.9-9.9
		s-4.4-9.9-9.9-9.9C329.7,416.3,325.3,420.7,325.3,426.2z M363.2,419.4c10.9,0,19.8-8.9,19.8-19.8s-8.9-19.8-19.8-19.8
		s-19.8,8.9-19.8,19.8S352.3,419.4,363.2,419.4z M575.3,426.2c0,29.9,24.3,54.2,54.2,54.2s54.2-24.3,54.2-54.2
		c0-29.9-24.3-54.2-54.2-54.2C599.5,372,575.3,396.3,575.3,426.2z M629.5,421c-10.9,0-19.8-8.9-19.8-19.8s8.9-19.8,19.8-19.8
		c10.9,0,19.8,8.9,19.8,19.8S640.4,421,629.5,421z M657.6,437.7c-5.5,0-9.9-4.4-9.9-9.9s4.4-9.9,9.9-9.9s9.9,4.4,9.9,9.9
		C667.5,433.3,663,437.7,657.6,437.7z"/>
</g>
<g id="mouth3">
	<path id="tounge3" class="st5" d="M638.2,718.8c-5.4,11.9-12.4,22.8-20.6,32.6l0,0c-5.3,5.4-50.1,49-141.1,49
		c-65.1,0-116.6-44.2-143.4-73.3c14.8-31.4,53.4-84.8,148.6-102C619.8,600.1,638.2,718.8,638.2,718.8z"/>
	<path id="throat3" class="st4" d="M333.1,723.3c-11.7-48.6,5-81.7,34.6-104c69.3-52.1,267.1-86.6,282.4,38.1
		c3,24.3-1.7,45.3-11.9,63.3c0,0-17.4-91.8-148-72.6C400,661.4,363.5,702.7,349.5,727c-6.3,10.9-8,18.4-8,18.4
		C337.9,738.7,335,731.3,333.1,723.3z"/>
</g>
</svg>
