<?xml version="1.0" encoding="utf-8"?>
<!-- Generator: Adobe Illustrator 23.0.6, SVG Export Plug-In . SVG Version: 6.00 Build 0)  -->
<svg version="1.1" id="monster7" xmlns="http://www.w3.org/2000/svg" xmlns:xlink="http://www.w3.org/1999/xlink" x="0px" y="0px"
	 viewBox="0 0 1000 1000" style="enable-background:new 0 0 1000 1000;" xml:space="preserve">
<style type="text/css">
	.st0{fill:#4081C2;}
	.st1{fill:#66A0D7;}
	.st2{fill:#FFFFFF;}
	.st3{fill:#1E1F1D;}
</style>
<path id="lighthorn7" class="st0" d="M692.7,61.2l-67.5,41.6l27,63.3l0,0c-0.3,3.9-1.5,6.6-3.5,7.5c-5.7,2.3-16.2-9.9-23.3-27.3
	l-4.4-9.7l-2.3-5l-2.9-6.6l-12.1-27.2l26.3-18l6.2-4.3l4.7-3.3l9.4-6.6L669.8,52l28.6-19.5L715,46.7l8.5,7.2l4,3.4l2.8,2.3
	l22.4,18.6l22.5,18.6l5.6,4.6l2.9,2.4l4.5,3.9l18.4,15.7l-3.5,20.5l-1.7,10.1l-0.9,6.2l-3.8,24.9L793,210l-1.9,12.4l-3.6,20.9
	l-11.6,10.8l-2.9,2.7l-1.6,1.5l-3.2,3.1l-12.9,12.3l-25.8,24.7l-51.6,49.3c-5.3,5.6-11.2,11.1-17.3,16.6
	c-27.9,24.6-56.6,9.5-58.8-13.9L746.9,230l33.8-91.7L692.7,61.2z M158.7,107.8l-18.4,15.7l3.4,20.5l1.7,10.1l1,6.2l3.7,24.9
	l3.7,24.9l1.9,12.4l3.5,20.9l11.7,10.8l2.9,2.7l1.6,1.5l3.2,3.1l12.9,12.3l25.8,24.7l51.7,49.3c5.3,5.6,11.1,11.1,17.4,16.6
	c27.9,24.6,56.7,9.5,58.8-13.9l0,0L200,230l-33.8-91.7l88-77.2l67.5,41.6l-27,63.3l0,0c0.3,3.9,1.5,6.6,3.6,7.5
	c5.7,2.3,16.1-9.9,23.3-27.3l4.4-9.7l2.3-5l3-6.6l12.1-27.2l-26.4-18l-6.2-4.3l-4.7-3.3l-9.4-6.6L277.1,52l-28.6-19.5l-16.6,14.2
	l-8.5,7.2l-4,3.4l-2.8,2.3l-22.4,18.6l-22.4,18.6l-5.6,4.6l-2.9,2.4L158.7,107.8z"/>
<path id="lightbody7" class="st1" d="M506.5,967.4c-108.4,0-95.2-110.1-95.2-110.1S359,958.7,211.4,966.8s-246.6-64.9-123.3-77.1
	c123.3-12.1,63.5-247.4,50.4-446.1c0,0-6.6-65,38.3-117.9c0.1-0.1,58.3-97.5,267.6-108.4l0,0c0,0,328.7-17.2,312.4,295
	c-13.7,263.2-30.3,308.3,20.7,331.4l0,0c9.5,7.1,22,10.6,36,11.9l0,0c55.2,5.1,134.7-24.7,154.4-14.6
	c31.8,16.2,18.7,126.3-151.3,126.3s-177.5-98.6-177.5-98.6S614.9,967.4,506.5,967.4z"/>
<g id="mouth7_1_">
	<path id="teeth7" class="st2" d="M231.5,701.5c0,0-10.1-6.3,12.6-22.7s54.1-35.3,54.1-35.3s12.6-8.9,20.1,11.3
		c4.9,13.2,15.9,45.4,23,66.3c-29.9,8.3-80.2,47.4-80.2,47.4l0,0L231.5,701.5z M448.1,676.9c-31.4,3.1-73.8,29-73.8,29l-16.9-51.1
		c0,0-8.2-16.3,11.6-23.9c19.9-7.5,45-16.4,45-16.4s16.4-5,20.2,7.5C436.6,630,443.3,657.3,448.1,676.9z"/>
	<path id="lip7" class="st3" d="M452.3,673.3c66.3-21,148.8-38.2,247.9-43.4c0,0-245.6,20.5-442,179.7l-15.1-29.9
		c0,0,8.2-7.4,24.7-18.9c17.2-12,43.4-28.4,79-45.7c10.2-5,21.2-10,32.9-15C401.3,690.9,425.5,681.8,452.3,673.3z"/>
</g>
<g id="eye7">
	<path id="eyewhite7" class="st2" d="M448.2,300.3c41.4,0,75,33.6,75,75.1s-33.6,75.1-75,75.1c-41.5,0-75.1-33.6-75.1-75.1
		S406.7,300.3,448.2,300.3z M448.2,332.6c-18.5,0-33.4,15-33.4,33.4c0,18.5,14.9,33.4,33.4,33.4c18.4,0,33.3-14.9,33.3-33.4
		C481.5,347.6,466.6,332.6,448.2,332.6z M448.3,246.5c95.2,0,172.4,77.3,172.4,172.6c0,41.8-14.9,80.1-39.6,110l-49.3-17.8
		c34.6-25.6,57-66.8,57-113.2c0-77.7-63-140.7-140.6-140.7L448.3,246.5z M275.6,419.1c0-95.3,77.3-172.6,172.6-172.6c0,0,0,0,0.1,0
		l-0.1,10.8c-77.7,0-140.8,63-140.8,140.7c0,46.3,22.4,87.5,57,113.2L315.1,529C290.4,499.2,275.6,460.8,275.6,419.1z"/>
	<path id="eyedark7" class="st3" d="M507.8,507.5c24.6,3.4,45.4,8.7,62.9,15c57.3,20.5,78.6,50.9,80.9,54.4
		c-3.5-4.1-44.4-47.8-203.4-47.8c-159.1,0-200,43.7-203.5,47.8c2.3-3.5,23.6-33.9,80.9-54.4c17.5-6.2,38.3-11.6,62.9-15
		c17.8-2.4,37.7-3.9,59.7-3.9C470.2,503.7,490,505.1,507.8,507.5z M523.2,375.4c0-41.5-33.6-75.1-75-75.1
		c-41.5,0-75.1,33.6-75.1,75.1s33.6,75.1,75.1,75.1C489.6,450.5,523.2,416.8,523.2,375.4z M388.5,525.5c-8.5-3.9-16.5-8.8-24-14.3
		c-34.6-25.6-57-66.8-57-113.2c0-77.7,63.1-140.7,140.8-140.7s140.6,63,140.6,140.7c0,46.3-22.4,87.5-57,113.2
		c-7.5,5.5-15.4,10.3-23.9,14.3c-17.8-2.4-37.6-3.9-59.6-3.9C426.2,521.7,406.3,523.1,388.5,525.5z M414.8,366
		c0-18.4,14.9-33.4,33.4-33.4c18.4,0,33.3,15,33.3,33.4c0,18.5-15,33.4-33.3,33.4C429.7,399.4,414.8,384.4,414.8,366z"/>
</g>
</svg>
