<?xml version="1.0" encoding="utf-8"?>
<!-- Generator: Adobe Illustrator 23.0.6, SVG Export Plug-In . SVG Version: 6.00 Build 0)  -->
<svg version="1.1" id="monster0" xmlns="http://www.w3.org/2000/svg" xmlns:xlink="http://www.w3.org/1999/xlink" x="0px" y="0px"
	 viewBox="0 0 1000 1000" style="enable-background:new 0 0 1000 1000;" xml:space="preserve">
<style type="text/css">
	.st0{fill:#EEFC68;}
	.st1{fill:#FFFFFF;}
	.st2{fill:#030405;}
	.st3{fill:#E43333;}
	.st4{fill:#1E1F1D;}
</style>
<path id="body0" class="st0" d="M829.2,928.9H812V56.1c0-20.1-16.2-36.3-36.3-36.3H224.4c-20,0-36.3,16.2-36.3,36.3v872.8h-17.2
	c-9.3,0-16.8,7.5-16.8,16.8v17.9c0,9.2,7.5,16.7,16.8,16.7h177.7c9.2,0,16.8-7.5,16.8-16.7v-17.9c0-9.3-7.5-16.8-16.8-16.8h-75.4
	V662.2H727v266.6h-75.4c-9.3,0-16.8,7.5-16.8,16.8v17.9c0,9.2,7.5,16.7,16.8,16.7h177.7c9.2,0,16.8-7.5,16.8-16.7v-17.9
	C845.9,936.3,838.4,928.9,829.2,928.9z"/>
<g id="eyes0">
	<path id="whiteeyes0" class="st1" d="M322.7,175.2c0-18.8,15.3-34.1,34.1-34.1c18.8,0,34.1,15.3,34.1,34.1s-15.3,34.1-34.1,34.1
		C338,209.2,322.7,194,322.7,175.2z M318,206.2c9.4,0,17,7.7,17,17c0,9.4-7.6,17.1-17,17.1s-17-7.7-17-17.1
		C301,213.9,308.6,206.2,318,206.2z M356.8,346.6c-75.6,0-136.9-61.3-136.9-136.9c0-75.7,61.3-137,136.9-137s136.9,61.3,136.9,137
		C493.8,285.3,432.4,346.6,356.8,346.6z M356.8,292.5c45.7,0,82.8-37.1,82.8-82.8c0-45.8-37.1-82.9-82.8-82.9
		c-45.8,0-82.8,37.2-82.8,82.9S311.1,292.5,356.8,292.5z M730.3,209.7c0,45.7-37.1,82.8-82.8,82.8s-82.8-37.1-82.8-82.8
		c0-45.8,37.1-82.9,82.8-82.9C693.2,126.8,730.3,163.9,730.3,209.7z M510.5,209.7c0,75.5,61.3,136.9,136.9,136.9
		s136.9-61.3,136.9-136.9S723,72.8,647.4,72.8C571.9,72.8,510.5,134.1,510.5,209.7z M686.3,206.2c-9.4,0-17,7.7-17,17.1
		c0,9.3,7.6,17,17,17s17-7.7,17-17C703.3,213.9,695.7,206.2,686.3,206.2z M681.5,175.1c0-18.7-15.3-34-34.1-34s-34.1,15.3-34.1,34
		c0,18.9,15.3,34.1,34.1,34.1C666.3,209.2,681.5,194,681.5,175.1z"/>
	<path id="darkeyes0" class="st2" d="M356.8,292.5c-45.8,0-82.8-37.1-82.8-82.8c0-45.8,37.1-82.9,82.8-82.9s82.8,37.2,82.8,82.9
		C439.7,255.4,402.6,292.5,356.8,292.5z M390.9,175.2c0-18.8-15.3-34.1-34.1-34.1c-18.8,0-34.1,15.3-34.1,34.1s15.3,34.1,34.1,34.1
		C375.6,209.2,390.9,194,390.9,175.2z M335.1,223.3c0-9.4-7.6-17-17-17s-17,7.7-17,17c0,9.4,7.6,17.1,17,17.1
		C327.4,240.4,335.1,232.6,335.1,223.3z M564.6,209.7c0,45.7,37.1,82.8,82.8,82.8c45.8,0,82.8-37.1,82.8-82.8
		c0-45.8-37.1-82.9-82.8-82.9C601.7,126.8,564.6,163.9,564.6,209.7z M613.4,175.1c0-18.7,15.3-34,34.1-34s34.1,15.3,34.1,34
		c0,18.9-15.3,34.1-34.1,34.1C628.7,209.2,613.4,194,613.4,175.1z M669.2,223.3c0-9.4,7.6-17.1,17-17.1s17,7.7,17,17.1
		c0,9.3-7.6,17-17,17C676.8,240.4,669.2,232.6,669.2,223.3z"/>
</g>
<g id="mouth0">
	<path id="tounge0" class="st3" d="M491.2,630c-59.7,0-99.1-25.8-125-59.5c18-17.7,58.3-47.3,125.6-47.3
		c66.5,0,106.6,28.9,124.9,46.7l0,0C590.7,603.9,551.2,630,491.2,630z"/>
	<path id="throat0" class="st4" d="M541,438.1l23.7-33.9l52,100.5V388.8V377h33.2v68.4c0,0-1,82.2-42.9,141.3c0,0-3.3-4.9-10.1-11.7
		c-15.5-15.4-49.6-40.7-106-40.7c-57.1,0-91.3,25.8-106.6,41.2c-6.5,6.5-9.6,11.1-9.6,11.1c-41.8-59.1-42.9-141.3-42.9-141.3V377
		h29.3v11.8v115.9l52-100.5l23.7,33.9l25.3-30.1l28.7,32.8l24.8-32.8L541,438.1z"/>
	<polygon id="teeth0" class="st1" points="413.3,399.1 361.2,543.5 361.2,377 616.7,377 616.7,543.5 564.7,399.1 541,447.8 
		515.7,404.7 490.9,451.7 462.3,404.7 437,447.8 	"/>
</g>
</svg>
