<?xml version="1.0" encoding="utf-8"?>
<!-- Generator: Adobe Illustrator 23.0.6, SVG Export Plug-In . SVG Version: 6.00 Build 0)  -->
<svg version="1.1" id="monster" xmlns="http://www.w3.org/2000/svg" xmlns:xlink="http://www.w3.org/1999/xlink" x="0px" y="0px"
	 viewBox="0 0 1000 1000" style="enable-background:new 0 0 1000 1000;" xml:space="preserve">
<style type="text/css">
	.st0{fill:#1B70B6;}
	.st1{fill:#C783B7;}
	.st2{fill:#66A0D7;}
	.st3{fill:#1E1F1D;}
	.st4{fill:#A3201B;}
	.st5{fill:#E32D28;}
	.st6{fill:#FFFFFF;}
	.st7{fill:#6EB7FF;}
</style>
<g id="horn">
	<path id="bulehorn" class="st0" d="M810.5,253.8c17.6,22.6,40.4,60.9,37.4,105.1c-31.3,24.6-70.3,42.6-117.1,50.8l-17.2-101.9
		C754.9,292.1,786.5,273.5,810.5,253.8z M937.9,210c-7.5-32.3-41.4-42.2-63-45.1c4.1-11.6,6.6-22.6,8-32.6
		c14.5-1.2,36.8,0.1,57.4,13.9c2.2,14.4,2.6,30.5,0.3,47.5C939.9,199.1,939,204.6,937.9,210z M843.3,221
		c7.5-9.2,13.6-18.4,18.6-27.4c21.5,8.7,52.3,29.4,56,77.2l0,0c-7.2,15.2-15.9,29.7-26.2,43.4C892.4,261.8,864.5,234.3,843.3,221z
		 M125,165.6c-4.1-11.6-6.6-22.6-8-32.6c-14.5-1.2-36.8,0.1-57.4,13.9c-2.2,14.4-2.6,30.5-0.3,47.6c0.7,5.4,1.6,10.8,2.7,16.2
		C69.7,178.4,103.5,168.6,125,165.6z M152.1,359.7c31.3,24.6,70.3,42.7,117.1,50.8l17.2-101.9c-41.3-15.7-72.9-34.3-96.9-54
		C171.9,277.2,149.1,315.5,152.1,359.7z M156.7,221.8c-7.5-9.2-13.6-18.4-18.7-27.4c-21.5,8.7-52.3,29.5-55.9,77.2l0,0
		c7.2,15.2,15.9,29.7,26.2,43.4C107.6,262.6,135.5,235.1,156.7,221.8z"/>
	<path id="purplehorn" class="st1" d="M882.7,83.1c18.8-17.6,49.8,12.5,57.7,63c-20.6-13.8-42.8-15.1-57.4-13.9
		C887.2,103.8,882.9,84,882.7,83.1z M917.9,270.7c-3.7-47.7-34.5-68.4-56-77.2c5.6-9.8,9.8-19.5,13-28.7c21.6,3,55.5,12.8,63,45.1
		C933.8,230.8,927.1,251.3,917.9,270.7z M847.9,358.9c3-44.2-19.9-82.5-37.4-105.1c13.1-10.7,23.9-21.7,32.8-32.8
		c21.3,13.3,49.1,40.8,48.4,93.1C879.4,330.6,864.8,345.7,847.9,358.9z M117,133c-4.3-29.1,0.3-49.1,0.3-49.1
		c-18.8-17.7-49.8,12.5-57.7,63C80.3,133.1,102.5,131.9,117,133z M125,165.6c-21.6,3-55.4,12.8-63,45.1c4.1,20.8,10.8,41.3,20,60.8
		c3.7-47.7,34.4-68.4,55.9-77.2C132.5,184.5,128.3,174.9,125,165.6z M156.7,221.8c-21.3,13.3-49.1,40.8-48.4,93.1
		c12.4,16.4,27,31.6,43.8,44.8c-3-44.2,19.8-82.5,37.4-105.1C176.5,243.9,165.7,232.9,156.7,221.8z"/>
</g>
<path id="body" class="st2" d="M694.5,910.5c-62.5-26.3,43.1-123,86.2-513c24.4-221-77.1-283.8-169.7-296.8l30.8-58.2
	c1.8-3.4-2.1-7.8-10.2-11.2c-8-3.5-19.9-5.8-32.4-5.3c-21.1,0.8-39.5,4.4-56.2,9.1s-31.8,10.6-45.9,17.1s-27.2,13.6-39.6,21.1
	s-24.3,15.5-35.3,23.9l-1.6,1.5l-1.7,1.4c-8,5.1-15.3,10.6-22.2,16.2c-6.9,5.6-13.5,11.4-19.7,17.4c-12.4,11.9-23.4,24.4-32.8,37.2
	l-35.7-40.8c-2.6-3-7.3-3-12.6-0.5c-5.3,2.5-11.3,7.7-16.1,14.8c-11.2,16.6-20.4,33.8-27,51.3s-10.7,35.1-12.1,52.4
	c-1.5,17.2-0.4,34,2.8,49.8c1.6,7.9,3.7,15.7,6.2,23.2c0.6,1.9,7.2,19.9,7.2,19.9c0,1.1,0,2.3,0,3.5l-55-1.9
	c-8.7-0.3-11.8,10.9-6.7,24.8c19.9,55.2,40.2,110.1,60.7,165l-32.8-0.7c-8.7-0.2-11.6,11-6.4,24.8L271.8,703
	c0.1,0.5,0.1,1.1,0.1,1.6l-32-0.6c-8.7-0.2-11.5,11-6.3,24.8l47.8,125.7c0.5,7.5,0.9,14.1,1.2,19.6c4.8,82.7-25.9,53.4-71.1,76
	c-45.3,22.6,62.5,24,148.7,24s25.9-54,34.5-100s28-49.2,135.8-44.9s60.3,85.3,47.4,120.9c-12.9,35.6,125,22.2,196.1,18.1
	C845.3,964.1,757,936.9,694.5,910.5z"/>
<g id="mouth">
	<path id="throat" class="st3" d="M501.7,561.9c-57.7,0-109.1,26.4-143,67.8c-4.6,5.6-8.8,11.5-12.7,17.6l0,0
		c-36.9-38.6-59.5-91-59.5-148.6c0-14.9,1.5-29.6,4.4-43.6c50.9,48.1,126.5,78.5,210.8,78.5s159.8-30.4,210.8-78.5
		c2.9,14,4.4,28.6,4.4,43.6c0,57.6-22.7,110-59.5,148.6l0,0c-3.9-6.1-8.2-12-12.8-17.6C610.8,588.3,559.4,561.9,501.7,561.9z"/>
	<path id="lip" class="st4" d="M346,647.3c3.9-6.1,8.2-12,12.7-17.6c35.5,38.7,86.4,63,143,63s107.5-24.3,142.9-63
		c4.6,5.6,8.9,11.5,12.8,17.6l0,0c-39.2,41-94.5,66.6-155.7,66.6C440.5,714,385.2,688.4,346,647.3L346,647.3z"/>
	<path id="tounge" class="st5" d="M501.7,561.9c57.6,0,109.1,26.4,142.9,67.8c-35.4,38.7-86.3,63-142.9,63s-107.5-24.3-143-63
		C392.6,588.3,444.1,561.9,501.7,561.9z"/>
</g>
<g id="eyes">
	<path id="whiteeyes" class="st6" d="M344.7,295.6c0-89.9,72.8-162.8,162.8-162.8s162.8,72.9,162.8,162.8s-72.9,162.8-162.8,162.8
		S344.7,385.5,344.7,295.6z M507.5,188.1c-59.4,0-107.6,48.2-107.6,107.6s48.2,107.6,107.6,107.6s107.6-48.2,107.6-107.6
		C615,236.2,566.9,188.1,507.5,188.1z M458.8,297.7c0-7,5.7-12.7,12.7-12.7s12.7,5.7,12.7,12.7s-5.7,12.7-12.7,12.7
		C464.4,310.4,458.8,304.7,458.8,297.7z M507.5,238.2c14,0,25.4,11.4,25.4,25.4c0,14-11.4,25.4-25.4,25.4c-14,0-25.4-11.4-25.4-25.4
		C482.1,249.6,493.5,238.2,507.5,238.2z"/>
	<path id="blueeyes" class="st7" d="M399.9,295.6c0-59.4,48.2-107.6,107.6-107.6s107.6,48.2,107.6,107.6s-48.2,107.6-107.6,107.6
		S399.9,355,399.9,295.6z M577,295.6c0-38.4-31.1-69.5-69.6-69.5c-38.4,0-69.5,31.1-69.5,69.5s31.1,69.5,69.5,69.5
		C545.9,365.1,577,334,577,295.6z"/>
	<path id="darkeyes" class="st3" d="M438,295.6c0-38.4,31.1-69.5,69.5-69.5s69.6,31.1,69.6,69.5s-31.1,69.5-69.6,69.5
		C469.1,365.1,438,334,438,295.6z M471.5,285c-7,0-12.7,5.7-12.7,12.7s5.7,12.7,12.7,12.7s12.7-5.7,12.7-12.7S478.5,285,471.5,285z
		 M532.9,263.6c0-14-11.4-25.4-25.4-25.4c-14,0-25.4,11.4-25.4,25.4s11.4,25.4,25.4,25.4C521.5,289,532.9,277.6,532.9,263.6z"/>
</g>
</svg>
